# AST/ASF file generated using VICON BodyLanguage
# -----------------------------------------------
:version 1.10
:name VICON
:units
  mass 1.0
  length 0.1
  angle deg
:documentation
   .ast/.asf automatically generated from VICON data using
   VICON BodyBuilder and BodyLanguage model FULLBODY5.MOD
:root
   order TX TY TZ RZ RY RX
   axis XYZ
   position 0 0 0  
   orientation 0 -0 0 
:bonedata
  begin
     id 1 
     name lhipjoint
     direction 0.969109 -0.218487 0.11442 
     length 0.544217 
     axis 0 -0 0  XYZ
  end
  begin
     id 2 
     name lfemur
     direction 0.173648 -0.984808 0  
     length 1.81499  
     axis 0 -0 10  XYZ
    dof rx ry rz
    limits (-180.0 180.0)
           (-180.0 180.0)
           (-180.0 180.0)
  end
  begin
     id 3 
     name ltibia
     direction 0.173515 -0.984831 0   
     length 1.55296   
     axis 0 -0 10   XYZ
    dof rx ry rz
    limits (-180.0 180.0)
           (-180.0 180.0)
           (-180.0 180.0)
  end
  begin
     id 4 
     name lfoot
     direction 7.36097e-012 -0.333012 0.942922   
     length 0.509062   
     axis -90 -1.73656e-015 10   XYZ
    dof rx ry rz
    limits (-180.0 180.0)
           (-180.0 180.0)
           (-180.0 180.0)
  end
  begin
     id 5 
     name ltoes
     direction 7.7847e-012 -4.42403e-011 1   
     length 0.249732   
     axis -90 -1.73656e-015 10   XYZ
    dof rx ry rz
    limits (-180.0 180.0)
           (-180.0 180.0)
           (-180.0 180.0)
  end
  begin
     id 6 
     name rhipjoint
     direction -0.966745 -0.226554 0.118645   
     length 0.524838  
     axis 0 -0 0  XYZ 
  end
  begin
     id 7 
     name rfemur
     direction -0.173648 -0.984808 0   
     length 1.84625   
     axis 0 -0 -10   XYZ
    dof rx ry rz
    limits (-180.0 180.0)
           (-180.0 180.0)
           (-180.0 180.0)
  end
  begin
     id 8 
     name rtibia
     direction -0.173714 -0.984796 0   
     length 1.577   
     axis 0 -0 -10   XYZ
    dof rx ry rz
    limits (-180.0 180.0)
           (-180.0 180.0)
           (-180.0 180.0)
 end
 begin
     id 9 
     name rfoot
     direction -0.0183819 -0.0406144 0.999006   
     length 0.490111  
     axis -90 1.73656e-015 -10   XYZ
    dof rx ry rz
    limits (-180.0 180.0)
           (-180.0 180.0)
           (-180.0 180.0)
  end
  begin
     id 10 
     name rtoes
     direction -7.79087e-012 -4.42375e-011 1   
     length 0.245053   
     axis -90 1.73656e-015 -10   XYZ
    dof rx ry rz
    limits (-180.0 180.0)
           (-180.0 180.0)
           (-180.0 180.0)
  end
  begin
     id 11 
     name lowerback
     direction -0.0664844 0.980601 0.184393   
     length 0.458979   
     axis 0 -0 0   XYZ
    dof rx ry rz
    limits (-180.0 180.0)
           (-180.0 180.0)
           (-180.0 180.0)
  end
  begin
     id 12 
     name upperback
     direction 0.0135995 0.999573 0.02588   
     length 0.463983   
     axis 0 -0 0   XYZ
    dof rx ry rz
    limits (-180.0 180.0)
           (-180.0 180.0)
           (-180.0 180.0)
  end
  begin
     id 13 
     name thorax
     direction 0.0468402 0.997311 -0.0563691   
     length 0.482746   
     axis 0 -0 0   XYZ
    dof rx ry rz
    limits (-180.0 180.0)
           (-180.0 180.0)
           (-180.0 180.0)
  end
  begin
     id 14 
     name lowerneck
     direction -0.00174311 0.988586 -0.150647   
     length 0.364383   
     axis 0 -0 0   XYZ
    dof rx ry rz
    limits (-180.0 180.0)
           (-180.0 180.0)
           (-180.0 180.0)
  end
  begin
     id 15 
     name upperneck
     direction -0.02653 0.999379 -0.0231908   
     length 0.361006   
     axis 0 -0 0   XYZ
    dof rx ry rz
    limits (-180.0 180.0)
           (-180.0 180.0)
           (-180.0 180.0)
  end
  begin
     id 16
     name head
     direction -0.00819207 0.999941 0.00714285  
     length 0.378714  
     axis 0 -0 0   XYZ
    dof rx ry rz
    limits (-180.0 180.0)
           (-180.0 180.0)
           (-180.0 180.0)
  end
  begin
     id 17 
     name lshoulderjoint
     direction 0.981627 -0.190809 0  
     length 0.612969  
     axis 0 -0 -11   XYZ
    dof rx ry rz
    limits (-180.0 180.0)
           (-180.0 180.0)
           (-180.0 180.0)
  end
  begin
     id 18 
     name lhumerus
     direction 0.48481 -0.87462 -9.72962e-027   
     length 1.19637   
     axis -180 5.14477e-009 -151   XYZ
    dof rx ry rz
    limits (-180.0 180.0)
           (-180.0 180.0)
           (-180.0 180.0)
  end
  begin
     id 19
     name lradius
     direction 0.48481 -0.87462 -2.35761e-026   
     length 0.637735   
     axis -180 5.14477e-009 -151   XYZ
    dof rx ry rz
    limits (-180.0 180.0)
           (-180.0 180.0)
           (-180.0 180.0)
  end
  begin
     id 20
     name lwrist
     direction 0.48481 -0.87462 -5.51856e-026   
     length 0.318868   
     axis -180 5.14477e-009 -151   XYZ
    dof rx ry rz
    limits (-180.0 180.0)
           (-180.0 180.0)
           (-180.0 180.0)
  end
  begin
     id 21 
     name lhand
     direction 0.477747 -0.861928 -0.169816   
     length 0.29526   
     axis -180 5.14477e-009 -151   XYZ
    dof rx ry rz
    limits (-180.0 180.0)
           (-180.0 180.0)
           (-180.0 180.0)
  end
  begin
     id 22 
     name rshoulderjoint
     direction -0.981627 -0.190809 0   
     length 0.572347  
     axis 0 -0 11   XYZ 
    dof rx ry rz
    limits (-180.0 180.0)
           (-180.0 180.0)
           (-180.0 180.0)
  end
  begin
     id 23 
     name rhumerus
     direction -0.48481 -0.87462 1.64836e-026  
     length 1.28846   
     axis 180 5.14477e-009 151   XYZ
    dof rx ry rz
    limits (-180.0 180.0)
           (-180.0 180.0)
           (-180.0 180.0)
  end
  begin
     id 24 
     name rradius
     direction -0.48481 -0.87462 2.86827e-026   
     length 0.62107   
     axis 180 5.14477e-009 151   XYZ
    dof rx ry rz
    limits (-180.0 180.0)
           (-180.0 180.0)
           (-180.0 180.0)
  end
  begin
     id 25 
     name rwrist
     direction -0.48481 -0.87462 5.20942e-026   
     length 0.310535   
     axis 180 5.14477e-009 151   XYZ
    dof rx ry rz
    limits (-180.0 180.0)
           (-180.0 180.0)
           (-180.0 180.0)
  end
  begin
     id 26
     name rhand
     direction -0.477664 -0.861515 -0.172133   
     length 0.291321   
     axis 180 5.14477e-009 151   XYZ
    dof rx ry rz
    limits (-180.0 180.0)
           (-180.0 180.0)
           (-180.0 180.0)
  end
:hierarchy
  begin
    root lhipjoint rhipjoint lowerback 
    lhipjoint lfemur
    lfemur ltibia
    ltibia lfoot
    lfoot ltoes
    rhipjoint rfemur
    rfemur rtibia
    rtibia rfoot
    rfoot rtoes
    lowerback upperback
    upperback thorax
    thorax lowerneck lshoulderjoint rshoulderjoint
    lowerneck upperneck
    upperneck head
    lshoulderjoint lhumerus
    lhumerus lradius
    lradius lwrist
    lwrist lhand
    rshoulderjoint rhumerus
    rhumerus rradius
    rradius rwrist
    rwrist rhand
  end

:FULLY-SPECIFIED
:DEGREES
971
root 3.39207 3.56308 -0.666288 114.759 -68.8163 113.421
lowerback -16.2038 3.31534 -4.00582
upperback -4.28225 4.85631 -1.17214
thorax 4.25271 2.27448 1.94906
lowerneck 10.1042 -2.6703 0.776385
upperneck 0.920951 -3.66207 -4.50887
head -1.54018 -1.75819 -1.39823
rshoulderjoint -2.44511 7.34018 -29.4811
rhumerus 351.049 1.7166 -414.555
rradius 27.3264 1.7016e-013 5.24792e-014
rwrist 1.67087e-013 -2.05958 -5.56957e-014
rhand -3.98909 1.948 21.2803
lshoulderjoint -1.91844 -5.46772 30.3681
lhumerus 343.133 24.7151 410.316
lradius 17.7706 2.00375e-013 1.25731e-013
lwrist -1.62013e-013 -8.53163 9.32682e-014
lhand 10.194 7.5354 -29.2035
rfemur -11.4921 27.1982 13.3106
rtibia 17.6355 2.54444e-014 6.36111e-015
rfoot -161.429 -39.9241 152.265
rtoes -9.54166e-015 9.0447e-014 -6.55989e-014
lfemur -41.9104 0.933548 -11.4711
ltibia 1.32574 3.18055e-015 -1.59028e-015
lfoot -9.27202 13.0652 20.192
ltoes -1.11319e-013 8.5875e-014 1.30403e-013
972
root 3.34031 3.55014 -0.664613 116.193 -68.5642 114.836
lowerback -16.4023 3.5073 -3.94687
upperback -4.20189 5.11778 -1.25332
thorax 4.44235 2.39749 1.89666
lowerneck 10.0326 -2.65045 0.750162
upperneck 0.798134 -3.63972 -4.49984
head -1.56617 -1.74507 -1.39227
rshoulderjoint -2.44803 7.33484 -29.5142
rhumerus 350.995 1.62315 -414.68
rradius 27.32 -2.71937e-013 -2.3218e-013
rwrist 3.51664e-013 -1.99485 -1.52958e-013
rhand -3.99739 1.87804 20.7628
lshoulderjoint -1.86369 -5.32452 30.3231
lhumerus 343.138 25.6776 410.136
lradius 17.8012 -3.08514e-013 -1.78707e-013
lwrist 4.79808e-013 -8.68949 -7.56109e-014
lhand 10.4428 7.53644 -29.1916
rfemur -11.0133 27.8187 13.4598
rtibia 18.5686 -1.27222e-014 -7.95139e-015
rfoot -160.585 -39.1071 151.821
rtoes 4.85035e-014 -2.04947e-013 3.18055e-015
lfemur -42.0207 1.44814 -11.6448
ltibia -1.59028e-014 -2.38542e-015 7.95139e-015
lfoot -9.79782 13.8982 19.612
ltoes 6.99722e-014 -9.02482e-014 -3.49861e-014
973
root 3.28753 3.53764 -0.662154 117.28 -68.3906 115.826
lowerback -16.5983 3.64874 -3.92909
upperback -4.09767 5.32324 -1.36517
thorax 4.65951 2.49194 1.82688
lowerneck 9.88368 -2.64474 0.774065
upperneck 0.694968 -3.62958 -4.51572
head -1.57435 -1.73842 -1.40321
rshoulderjoint -2.43702 7.31169 -29.4906
rhumerus 350.962 1.51906 -414.763
rradius 27.301 -8.74653e-014 1.35174e-013
rwrist -3.02328e-013 -1.94982 3.06902e-013
rhand -3.97207 1.82694 20.2047
lshoulderjoint -1.79561 -5.14933 30.2539
lhumerus 343.238 26.3622 409.998
lradius 17.8317 -2.54444e-014 5.49391e-014
lwrist -1.63326e-013 -8.77672 9.89608e-014
lhand 10.6236 7.65065 -29.1354
rfemur -10.4694 28.2634 13.5696
rtibia 19.4549 -3.18055e-014 0
rfoot -159.908 -38.3132 151.488
rtoes 7.31528e-014 5.78463e-014 7.67309e-014
lfemur -42.5214 1.76238 -11.9004
ltibia 3.18055e-014 -1.59028e-015 -5.56597e-015
lfoot -10.8669 14.8003 18.8161
ltoes -1.59028e-013 5.00937e-014 0
974
root 3.23411 3.5256 -0.659585 118.206 -68.2348 116.608
lowerback -16.7732 3.77518 -3.94082
upperback -4.03104 5.51247 -1.52913
thorax 4.82965 2.57884 1.71353
lowerneck 9.75208 -2.65872 0.872725
upperneck 0.648702 -3.63527 -4.51223
head -1.56872 -1.74099 -1.42017
rshoulderjoint -2.38912 7.22164 -29.3609
rhumerus 350.902 1.48611 -414.814
rradius 27.2706 7.4743e-014 -1.86062e-013
rwrist 7.35111e-013 -1.89593 -3.7571e-013
rhand -3.95213 1.73957 19.6247
lshoulderjoint -1.74179 -4.99325 30.2583
lhumerus 343.336 27.1036 409.841
lradius 17.8195 1.20861e-013 -3.59924e-014
lwrist 3.5973e-013 -8.87102 -7.40384e-014
lhand 10.8597 7.65861 -28.9664
rfemur -9.88987 28.6302 13.6426
rtibia 20.271 5.08889e-014 1.43125e-014
rfoot -159.431 -37.5662 151.307
rtoes -6.83819e-014 1.69166e-013 -5.60573e-014
lfemur -44.2375 1.98462 -12.2077
ltibia 3.12548 1.03368e-014 -7.95139e-016
lfoot -13.5498 16.0943 17.4469
ltoes 8.90555e-014 7.15625e-014 2.16278e-013
975
root 3.18105 3.51326 -0.657865 119.483 -67.6711 117.745
lowerback -17.217 3.97957 -4.01967
upperback -4.04499 5.81553 -1.65032
thorax 5.04127 2.71644 1.72203
lowerneck 9.54434 -2.6472 0.851646
upperneck 0.649164 -3.61903 -4.49845
head -1.53048 -1.73479 -1.41463
rshoulderjoint -2.36855 7.1525 -29.3765
rhumerus 350.801 1.32708 -414.913
rradius 27.2242 3.35549e-013 2.00375e-013
rwrist 1.92505e-013 -1.67031 5.68766e-014
rhand -3.92327 1.57513 19.0094
lshoulderjoint -1.6608 -4.77497 30.2039
lhumerus 343.527 27.5441 409.77
lradius 17.7674 5.91583e-013 6.54002e-014
lwrist 1.81089e-014 -8.90403 -2.32598e-013
lhand 11.0291 7.78557 -28.8157
rfemur -9.6461 29.3271 13.5174
rtibia 20.991 9.85972e-014 2.22639e-014
rfoot -159.211 -36.8742 151.299
rtoes -3.33958e-014 4.26592e-013 -2.07134e-013
lfemur -45.4644 2.47974 -12.5681
ltibia 5.0568 5.56597e-015 -2.06736e-014
lfoot -15.3112 16.4538 16.2792
ltoes 1.68569e-013 1.86062e-013 3.95979e-013
976
root 3.12562 3.50262 -0.656815 120.337 -67.445 118.408
lowerback -17.4929 4.09497 -4.18784
upperback -4.01 6.01818 -1.79767
thorax 5.21419 2.80619 1.72392
lowerneck 9.38399 -2.67553 0.95942
upperneck 0.64257 -3.64328 -4.52486
head -1.50844 -1.74713 -1.4423
rshoulderjoint -2.30799 7.01543 -29.2624
rhumerus 350.684 1.19664 -414.971
rradius 27.1807 -3.88028e-013 -1.00187e-013
rwrist 1.11365e-014 -1.63405 1.8574e-013
rhand -3.90652 1.58133 18.4819
lshoulderjoint -1.6021 -4.61014 30.187
lhumerus 343.725 27.9656 409.689
lradius 17.6897 -5.97944e-013 7.50412e-015
lwrist 2.08883e-013 -8.95158 4.10521e-013
lhand 11.2203 7.85309 -28.698
rfemur -9.02514 29.6995 13.5402
rtibia 21.6008 -6.36111e-014 -1.90833e-014
rfoot -159.112 -36.2403 151.337
rtoes 7.4743e-014 -2.54246e-013 9.18385e-014
lfemur -46.197 2.66367 -12.9485
ltibia 6.91183 1.82882e-014 1.03368e-014
lfoot -16.3108 16.7115 15.2128
ltoes -1.52667e-013 -1.2434e-013 -5.56597e-014
977
root 3.06835 3.49324 -0.656187 121.003 -67.2366 118.862
lowerback -17.8636 4.155 -4.45159
upperback -3.98213 6.16717 -1.90565
thorax 5.41774 2.86591 1.81705
lowerneck 9.26754 -2.69468 1.06184
upperneck 0.652352 -3.65727 -4.57124
head -1.489 -1.75406 -1.47557
rshoulderjoint -2.27003 6.92699 -29.1946
rhumerus 350.519 1.10342 -415.029
rradius 27.1307 -3.18055e-014 -8.42847e-014
rwrist 4.90007e-013 -1.64514 -1.1057e-013
rhand -3.95693 1.58113 18.0603
lshoulderjoint -1.52968 -4.42321 30.0987
lhumerus 343.925 28.3876 409.583
lradius 17.578 -3.18055e-014 -5.56597e-015
lwrist 3.90974e-013 -9.11222 8.05302e-014
lhand 11.3858 7.93457 -28.6289
rfemur -8.33248 29.9949 13.5595
rtibia 22.0579 -4.13472e-014 -1.74931e-014
rfoot -159.274 -35.6783 151.514
rtoes 5.40694e-014 -3.14477e-013 1.18476e-013
lfemur -46.7932 2.75411 -13.3508
ltibia 8.85262 0 -9.54166e-015
lfoot -16.63 16.6804 14.3952
ltoes 1.30403e-013 -8.43344e-014 -1.39944e-013
978
root 3.00918 3.48499 -0.65567 121.546 -67.0102 119.151
lowerback -18.3424 4.17608 -4.80989
upperback -3.97643 6.28531 -1.98396
thorax 5.64187 2.90629 1.99547
lowerneck 9.1493 -2.70228 1.12787
upperneck 0.722855 -3.65962 -4.63642
head -1.44883 -1.75627 -1.50916
rshoulderjoint -2.25103 6.89236 -29.1365
rhumerus 350.269 0.982674 -415.048
rradius 27.058 4.13472e-014 -4.29375e-014
rwrist 7.65236e-013 -1.63823 -9.74443e-014
rhand -4.03112 1.54613 17.7372
lshoulderjoint -1.45967 -4.24671 29.9887
lhumerus 344.108 28.8306 409.511
lradius 17.4347 1.90833e-013 5.56597e-014
lwrist 3.50903e-013 -9.30797 4.43161e-014
lhand 11.5647 7.9343 -28.6203
rfemur -7.58727 30.2144 13.5287
rtibia 22.3194 -4.77083e-014 -9.54166e-015
rfoot -159.659 -35.1729 151.804
rtoes -3.65764e-014 -3.76896e-013 1.36366e-013
lfemur -47.2719 2.79084 -13.7909
ltibia 10.8205 -1.59028e-014 4.77083e-015
lfoot -16.0989 16.2543 13.7447
ltoes 1.145e-013 -1.31198e-013 -2.48083e-013
979
root 2.94794 3.47812 -0.655275 121.889 -66.7727 119.252
lowerback -18.9265 4.17869 -5.18187
upperback -4.01624 6.38494 -2.05008
thorax 5.86937 2.93464 2.19733
lowerneck 9.13058 -2.72757 1.1884
upperneck 0.817765 -3.685 -4.65509
head -1.41754 -1.77049 -1.52497
rshoulderjoint -2.23156 6.84314 -29.11
rhumerus 349.932 0.804398 -415.104
rradius 26.9571 1.22451e-013 2.35361e-013
rwrist -5.8229e-013 -1.67359 2.88759e-013
rhand -4.06858 1.58972 17.4786
lshoulderjoint -1.4053 -4.10691 29.9084
lhumerus 344.264 28.7313 409.523
lradius 17.2938 1.39944e-013 2.69353e-014
lwrist -2.52202e-013 -9.31248 -7.57413e-014
lhand 11.5743 8.08801 -28.7693
rfemur -6.79197 30.3603 13.4948
rtibia 22.3798 9.54166e-015 -1.43125e-014
rfoot -160.275 -34.7288 152.227
rtoes 0 3.33958e-014 -7.31528e-014
lfemur -47.7249 2.79698 -14.2125
ltibia 12.7635 1.59028e-014 6.36111e-015
lfoot -15.2725 15.3853 13.0797
ltoes 9.54166e-015 -3.11595e-014 1.17681e-013
